<svg xmlns="http://www.w3.org/2000/svg" width="2297" height="2793" viewBox="0 0 2297 2793">
  <defs>
    <style>
      .cls-1 {
        fill: #df8a3f;
      }

      .cls-1, .cls-2 {
        fill-rule: evenodd;
      }

      .cls-2 {
        fill: #1d934d;
      }
    </style>
  </defs>
  <path id="Fond_2" data-name="Fond 2" class="cls-1" d="M1641.15,844.816h-5.67c-0.8,8-1.83,12.231-5.67,17.007q-2.82,1.418-5.66,2.835v8.5L1618.48,876v5.669l-5.67,2.835v5.669q-4.26,2.834-8.51,5.669v5.669q-4.245,2.834-8.5,5.669v5.668q-7.08,5.668-14.17,11.338v5.669q-14.175,12.754-28.35,25.51-7.08,8.5-14.17,17.007h-5.67c-0.94,1.89-1.89,3.78-2.83,5.669q-4.26,2.834-8.5,5.669v2.834h-5.67v2.835c-4.91,4.053-6.84,6.582-14.18,8.5v5.673c-7.6,1.56-20.44,9.71-25.51,14.17q-2.835,4.245-5.66,8.5h-8.51q-2.835,4.26-5.67,8.51h-5.67v2.83h-5.66c-1.53.98-2.4,3.85-5.67,5.67v-5.67c-9.44-8.15-4.26-15.38-8.51-28.34h-2.83v-8.51h-2.84V989.374h-2.83V927.016h2.83V912.843h2.84V898.671h2.83q1.425-14.17,2.84-28.344h2.83v-8.5h2.84v-8.5h2.83q1.425-9.92,2.84-19.841h2.83V827.81h2.83q1.425-8.5,2.84-17.007h2.83q1.425-5.668,2.84-11.338h2.83v-8.5h2.84v-5.669l5.67-2.835q2.82-8.5,5.66-17.007l5.67-2.834v-8.5q4.26-2.835,8.51-5.669,1.41-5.668,2.83-11.338,4.26-2.835,8.5-5.669v-5.669l5.67-2.834c0.95-2.835,1.89-5.67,2.84-8.5h2.83c0.95-2.834,1.89-5.669,2.84-8.5h5.67q1.41-5.668,2.83-11.338c9.56-2.775,5.42-3.437,11.34-8.5v-2.835h5.67c1.94-8.295,3.15-9.281,11.33-11.338,3.4-11.537,1.94-2.982,8.51-8.5,0.94-2.834,1.89-5.669,2.83-8.5h2.84v-2.834c6.52-5.471,5.04,3.013,8.5-8.5h5.67l5.67-8.5h5.67c0.94-1.889,1.89-3.779,2.83-5.669,6.58-6.037,18.42-14.841,28.35-17.006v-5.669c15.96-3.32,20.19-12.962,39.68-14.173,2.01,3.452,8.05,7.679,8.5,8.5q1.425,17,2.84,34.013H1678v22.676h2.84q-1.425,24.09-2.84,48.186h-2.83v31.179h-2.84v17.007h-2.83v8.5h-2.84q-1.41,11.337-2.83,22.676h-2.84v8.5h-2.83v5.669h-2.83q-1.425,9.919-2.84,19.841l-5.67,2.835C1643.05,828.513,1642.1,836.5,1641.15,844.816ZM348.639,1190.62v5.67c13.156,2.79,15.263,11.09,28.344,14.17v5.67c7.991,1.68,11.708,4.37,17.007,8.5v2.84q5.668,1.41,11.338,2.83,1.418,2.835,2.834,5.67c2.835,0.95,5.67,1.89,8.5,2.84q2.834,4.245,5.669,8.5H428v2.83c2.834,0.95,5.669,1.89,8.5,2.84q1.417,2.835,2.834,5.67h5.669q2.835,4.245,5.669,8.5,5.669,1.425,11.338,2.84v2.83c5.373,4.2,9.016,6.61,17.007,8.5v5.67h5.669c3.98,2.59.29,6.92,2.834,11.34,1.89,0.94,3.78,1.89,5.669,2.83v5.67h2.835c3.29,4.21,4.069,4.99,5.669,11.34h5.668q2.835,8.5,5.669,17.01h2.835q-1.417,7.08-2.835,14.17c-8.768,2.35-14.715,8.72-22.675,11.34H473.355v2.83h-8.5v2.84H447.845v2.83H405.328v2.84q-36.844-1.425-73.7-2.84v-2.83H314.625v-2.84h-8.5v-2.83q-14.171-1.425-28.345-2.84v-2.83h-8.5v-2.84h-5.669v-2.83q-9.919-1.41-19.841-2.83v-2.84q-5.668-1.41-11.338-2.83v-2.84q-8.5-1.41-17.007-2.83-1.418-2.835-2.834-5.67-7.086-1.425-14.173-2.84-1.416-2.82-2.834-5.66h-8.5v-2.84h-5.669v-2.83h-5.668l-2.835-5.67L155.9,1304q-1.416-2.835-2.834-5.67-5.668-1.41-11.338-2.83-2.834-4.26-5.669-8.51-5.668-1.41-11.338-2.83-1.416-2.835-2.834-5.67h-5.669q-2.835-4.26-5.669-8.5h-5.669v-2.84c-2.834-.94-5.669-1.89-8.5-2.83l-2.835-5.67H87.868l-8.5-11.34H73.7l-2.834-5.67H68.027l-2.835-5.67H59.524v-2.83c-4.956-4.09-6.848-6.45-14.172-8.51-2.05-7.83-.791-6.34-8.5-8.5v-5.67c-8.9-4.95-35.417-30.77-36.848-42.52,16.249-.53,25.129-5.03,36.848-8.5q46.764-1.41,93.537-2.83H172.9v2.83q22.674,1.425,45.351,2.84v2.83h11.338v2.83h22.676v2.84h14.172v2.83h8.5v2.84h14.172v2.83h17.007v2.84A163.442,163.442,0,0,0,348.639,1190.62Zm983.561,62.36v5.67h5.67c0.94,2.83,1.89,5.67,2.83,8.5q4.245,2.835,8.5,5.67v8.5h2.84v8.51h2.83v5.67h2.84v14.17h2.83v31.18h2.84v19.84h2.83v17h2.83v11.34h2.84v8.51h2.83q1.425,5.67,2.84,11.33h2.83v5.67h2.84c4.04,5.07,6.45,6.77,8.5,14.18,10.43,2.52,14.53,10.37,22.68,14.17q7.08,1.41,14.17,2.83c0.94,1.89,1.89,3.78,2.83,5.67h14.18v2.84q9.915,1.41,19.84,2.83v2.83l65.19,5.67c-1.5,15.2-9.5,18.08-11.34,34.02h-5.67c-2.15,18.82-18.11,23.4-22.67,39.68-10.94,2.85-8.91,8.3-19.84,11.34v5.67c-2.84.94-5.67,1.89-8.51,2.83q-2.835,4.245-5.67,8.5h-5.67v2.84c-6.19,5.13-10.3,9.31-19.84,11.34v5.67q-5.67,1.41-11.34,2.83c-0.94,2.83-1.88,5.67-2.83,8.5-7.83,2.05-6.34.79-8.5,8.51-3.37,3.05-8,8.67-5.67,17h2.83v8.51h2.84v5.67h2.83v5.66c1.89,0.95,3.78,1.89,5.67,2.84,3.82,7.28,9.93,43.26,5.67,56.69-3.31,10.44-11.62,16.59-14.17,28.34-7.83,2.05-6.34.79-8.51,8.51q-5.67,1.41-11.33,2.83v5.67h-5.67c-1.91,3.62-4.44,3.84-5.67,5.67v5.67q-4.26,2.835-8.51,5.67v8.5h-2.83v8.5h-2.83v5.67h-2.84v11.34h-2.83v8.5c-1.89.95-3.78,1.89-5.67,2.84q-2.835,9.915-5.67,19.84h-5.67v8.5q-4.245,2.835-8.5,5.67v5.67q-7.1,5.67-14.18,11.34c-0.94,2.83-1.89,5.67-2.83,8.5-2.83.95-5.67,1.89-8.5,2.84v5.66h-5.67c-5.45,9.74-8.95,8.38-17.01,14.18q-4.245,5.67-8.5,11.33h-5.67c-0.95,1.89-1.89,3.78-2.84,5.67q-5.655,1.425-11.33,2.84v2.83H1250c-0.95,1.89-1.89,3.78-2.84,5.67q-9.915,1.425-19.84,2.84v2.83h-8.5v2.83c-25.33,7.87-66.99-12.04-70.86-25.51h-5.67c-0.95-2.83-1.89-5.66-2.84-8.5q-4.245-2.835-8.5-5.67v-5.67q-4.245-2.835-8.5-5.67v-5.66h-2.84q-1.41-7.1-2.83-14.18c-1.89-.94-3.78-1.89-5.67-2.83q-1.425-7.08-2.84-14.17h-2.83v-5.67h-2.83q-1.425-8.505-2.84-17.01h-2.83V1805.7h-2.84v-5.67h-2.83v-14.17h-2.84v-14.17c-11.26-37.14-3.26-94.68-2.83-136.06h8.5v5.67l70.86,5.67c0.95,1.89,1.89,3.78,2.84,5.67q7.08,1.41,14.17,2.83,2.835,4.26,5.67,8.51,11.34,9.915,22.67,19.84c0.95,2.83,1.89,5.67,2.84,8.5h5.67v2.83h5.67c0.94,1.89,1.89,3.78,2.83,5.67h5.67v2.84a151.5,151.5,0,0,0,31.18-2.84q7.08-8.49,14.17-17h2.84q1.41-8.5,2.83-17.01c1.89-.94,3.78-1.89,5.67-2.83v-25.51h2.83v-17.01h-2.83v-28.35h-2.83v-5.66h-2.84v-11.34h-2.83v-8.51h-2.84v-8.5c-1.89-.94-3.78-1.89-5.67-2.83q-1.41-7.1-2.83-14.18h-5.67c-2.81-13.7-19.6-27.45-28.35-36.84-1.88-.95-3.77-1.89-5.66-2.84q-1.425-7.08-2.84-14.17c-1.89-.95-3.78-1.89-5.67-2.84q-1.41-22.665-2.83-45.35h-2.84q-1.41-12.75-2.83-25.51h-2.84v-8.5h-2.83v-8.5c-1.89-.95-3.78-1.89-5.67-2.84v-5.67h-2.83v-8.5h-2.84c-3.23-3.23-.01-1.13-5.67-2.84v-5.66q-7.08-5.67-14.17-11.34v-2.84h-8.5c-0.95-1.89-1.89-3.78-2.84-5.67h-5.67v-2.83h-11.33v-2.83c-8.73-2.76-33.07-2.83-42.52,0v2.83h-17.01c-0.94,1.89-1.89,3.78-2.83,5.67h-8.5v2.83q-7.1,1.425-14.18,2.84c-0.94,1.89-1.89,3.78-2.83,5.67q-5.67,1.41-11.34,2.83-2.835,4.26-5.67,8.5-8.5,1.425-17.01,2.84v2.83h-5.66v2.84H983.558c-5.972-8.63-14.379-5.88-22.676-11.34q-2.833-4.245-5.669-8.5h-5.669q-2.834-4.26-5.669-8.51c-2.834-.94-5.669-1.89-8.5-2.83q-1.417-2.835-2.834-5.67h-5.669l-2.835-5.67c-2.834-.94-5.669-1.89-8.5-2.83v-2.84h-5.669q-2.835-4.245-5.669-8.5-7.086-1.425-14.172-2.84-1.417-2.82-2.835-5.66h-8.5v-2.84q-14.17,1.425-28.345,2.84-2.833,4.245-5.669,8.5H839c-2.592,9.96-6.895,8.09-8.5,19.84h-5.669c-1.331,21.31-9.811,26.55-34.013,25.51-3.23,3.23-.011,1.13-5.669,2.83-0.076,9.46-1.49,12.84-2.835,19.85-7.83-2.05-6.341-.79-8.5-8.51h-2.835q1.418-14.16,2.835-28.34h2.834v-11.34c1.89-.94,3.78-1.89,5.669-2.83l2.835-17.01h2.834v-5.67c1.89-.94,3.78-1.89,5.669-2.83q1.418-5.67,2.834-11.34l8.5-5.67v-5.67q5.668-4.245,11.338-8.5c7.8-10.77,16.871-27.61,31.179-31.18v-5.67c2.834-.95,5.669-1.89,8.5-2.84v-2.83c2.834-.94,5.669-1.89,8.5-2.83q1.416-2.835,2.834-5.67h8.5q2.835-4.26,5.669-8.51h8.5v-2.83h5.669q1.416-2.835,2.834-5.67,8.5-1.425,17.007-2.83v-2.84H921.2v-2.83l34.013-5.67v-2.84c8.764-2.68,64.857-6.31,76.527-2.83v2.83q12.765,1.425,25.51,2.84v2.83h8.51v2.84h8.5c0.95,1.89,1.89,3.78,2.84,5.67q12.75,4.245,25.51,8.5v2.83c2.83,0.95,5.66,1.89,8.5,2.84,0.94,1.89,1.89,3.78,2.83,5.67h5.67v2.83h5.67c0.95,1.89,1.89,3.78,2.84,5.67h8.5v2.83h8.5v2.84h11.34v2.83c16.74,5,62.58-2.45,73.7-5.67h17v-2.83h25.51q12.765-1.41,25.51-2.83v2.83h19.84v2.83Q1325.115,1251.565,1332.2,1252.98Zm192.74,422.33c1.95,7.16,10.18,15.97,5.67,28.35h-2.84q-1.41,5.67-2.83,11.34h-2.83q-1.425,8.49-2.84,17c-1.89.95-3.78,1.89-5.67,2.84q-1.41,8.505-2.83,17c-1.89.95-3.78,1.89-5.67,2.84q-1.425,8.5-2.84,17.01h-2.83v5.66c-1.89.95-3.78,1.89-5.67,2.84v8.5h-2.83v5.67h-2.84v8.5c-1.89.95-3.78,1.89-5.67,2.84q-1.41,8.5-2.83,17.01c-1.89.94-3.78,1.89-5.67,2.83q-1.425,7.08-2.83,14.17c-1.89.95-3.78,1.89-5.67,2.84-7.42,8.03-10.63,13-25.51,14.17v-2.84h-8.51v-2.83c-2.83-.94-5.67-1.89-8.5-2.83-3.22-30.94-9.55-57.37,0-87.87v-14.18h2.83q1.425-5.655,2.84-11.33h2.83q1.425-7.1,2.84-14.18h2.83c4.17-5.42,6.62-8.98,8.51-17h5.66c1.94-8.3,3.16-9.28,11.34-11.34,2.05-7.83.79-6.34,8.51-8.5C1481.76,1670.94,1505.48,1671.47,1524.94,1675.31Zm595.24,201.25v5.67c19.77,5.22,30.21,31.84,48.18,36.85v5.67q12.765,11.325,25.51,22.67v5.67q8.505,7.08,17.01,14.17v5.67q4.245,2.835,8.5,5.67v5.67q5.67,4.245,11.34,8.5v5.67h2.84c0.94,2.84,1.88,5.67,2.83,8.51H2091.83c-7.06-5.85-20.52.32-31.18-2.84v-2.83h-14.17v-2.84h-11.34v-2.83h-17v-2.84h-14.18v-2.83h-5.67v-2.84q-12.75-1.41-25.51-2.83v-2.83h-5.66v-2.84q-12.765-2.835-25.51-5.67v-2.83h-5.67v-2.84q-8.505-1.41-17.01-2.83c-0.94-1.89-1.89-3.78-2.83-5.67h-5.67v-2.83h-5.67v-2.84h-8.51c-0.94-1.89-1.89-3.78-2.83-5.67l-17.01-5.67c-0.94-1.89-1.89-3.78-2.83-5.67q-5.67-1.41-11.34-2.83-2.835-4.245-5.67-8.5h-8.5c-0.95-1.89-1.89-3.78-2.84-5.67-2.83-.95-5.67-1.89-8.5-2.84v-2.83c-2.83-.95-5.67-1.89-8.5-2.84v-5.67q-5.67-1.41-11.34-2.83v-5.67c-17.35-4.42-33.71-28.04-45.35-39.68q-8.505-7.08-17.01-14.17v-5.67q-9.915-8.505-19.84-17.01v-25.51c2.83-.94,5.67-1.89,8.5-2.83v-2.84h5.67v-2.83h36.85v-2.84c13.02-3.59,61.64.23,70.86,2.84h34.02v2.83h14.17v2.84h17v2.83h19.85v2.84h11.33v2.83h8.51v2.83h11.33v2.84h11.34v2.83h5.67v2.84h8.5v2.83h11.34v2.84h5.67c0.95,1.89,1.89,3.78,2.84,5.67h11.33v2.83h5.67v2.83h5.67c0.95,1.89,1.89,3.78,2.84,5.67h8.5v2.84h5.67c0.94,1.89,1.89,3.78,2.83,5.67l17.01,5.67c0.94,1.88,1.89,3.77,2.83,5.66h5.67v2.84h5.67q2.835,4.245,5.67,8.5h5.67v2.84C2108.46,1872.31,2112.24,1874.67,2120.18,1876.56Z"/>
  <path id="Fond_1" data-name="Fond 1" class="cls-2" d="M711.45,632.232l11.338,2.834v5.669c17.146,4.582,19.746,23.6,36.847,28.345v5.669c7.835,4.337,23.061,18.845,25.511,28.344h5.669q1.416,5.668,2.834,11.338h5.669c3.216,12.825,12.16,14.085,14.172,28.345h5.669a55.974,55.974,0,0,0,8.5,19.841l5.668,2.834v8.5L839,776.789v5.669h2.835v5.669h2.834v8.5l5.669,2.834q1.418,8.5,2.835,17.007c27.586,62.668,50.188,156.419,14.172,226.758-3.423-1.81-4.1-4.67-5.669-5.67h-5.669v-2.83h-5.669q-2.833-4.26-5.669-8.51-5.668-1.41-11.338-2.83-2.834-4.26-5.668-8.51h-5.669v-2.83c-5.273-4.24-9.071-6.66-17.007-8.5v-5.673l-8.5-2.834q-1.416-2.835-2.834-5.669l-8.5-2.835c-7.216-5.164-4.8-11.026-17.007-14.172V966.7H762.47l-22.676-25.51-5.669-2.834v-5.669q-11.336-9.919-22.675-19.842v-5.668l-8.5-5.669q-1.416-4.252-2.834-8.5l-5.669-2.834-2.835-11.338-8.5-5.669v-8.5h-2.834l-2.835-8.5-5.669-2.834v-8.5l-5.669-2.834q-1.416-7.086-2.834-14.172h-2.835q-1.416-5.668-2.834-11.338H654.76v-8.5h-2.834V796.631l-5.669-2.835V782.458h-2.834v-8.5h-2.835V756.948h-2.834v-8.5h-2.835V731.438h-2.834V703.093c-2.9-10.29-6.826-50.857-2.835-65.192h2.835q1.416-18.423,2.834-36.848c8.325-4.843,8.115-8.2,22.676-8.5v2.835l14.172,2.834,2.835,5.669h5.669l5.669,8.5h5.668v2.834h5.669l5.669,8.5,8.5,2.835v5.669Zm844.67,564.058h5.67v5.67q5.67,4.245,11.34,8.5c0.94,2.84,1.89,5.67,2.83,8.51h5.67c1.63,7.93,4.34,11.8,8.5,17h2.84v5.67q4.245,2.835,8.5,5.67,1.425,5.67,2.83,11.34,4.26,2.835,8.51,5.67,1.41,5.67,2.83,11.33,4.26,2.835,8.51,5.67v8.51c1.89,0.94,3.78,1.89,5.66,2.83l5.67,17.01c1.89,0.94,3.78,1.89,5.67,2.83q1.425,7.1,2.84,14.17h2.83v5.67h2.84q1.41,5.67,2.83,11.34h2.84v8.5h2.83q1.41,5.67,2.83,11.34h2.84q1.41,8.505,2.83,17.01h2.84v5.67h2.83q1.425,11.34,2.84,22.67H1678v5.67h2.84v8.51h2.83v17h2.83v11.34h2.84v11.34h2.83v17.01h2.84q1.41,29.745,2.83,59.52h2.84c4.95,17.36-2.2,70.06-5.67,82.2q-1.425,24.09-2.84,48.18h-2.83v8.51h-2.84q-1.41,14.175-2.83,28.34h-2.83V1715H1678v8.5h-2.83v11.34h-2.84v8.5h-2.83v5.67h-2.84v8.5h-2.83v11.34h-2.84q-2.835,8.505-5.66,17.01h-2.84q-1.41,7.08-2.83,14.17c-1.89.94-3.78,1.89-5.67,2.83v11.34c-1.89.95-3.78,1.89-5.67,2.84v5.67h-2.84v5.66h-2.83v5.67h-2.84v5.67c-1.88.95-3.77,1.89-5.66,2.84q-1.425,5.67-2.84,11.33c-1.89.95-3.78,1.89-5.67,2.84q-1.41,5.67-2.83,11.34h-2.84c-4.19,5.37-6.62,9.01-8.5,17h-5.67c-1.82,9.54-6.28,13.71-11.34,19.84h-2.83v5.67q-4.26,2.835-8.5,5.67c-0.95,2.84-1.89,5.67-2.84,8.51h-5.67c-2.85,10.93-8.3,8.9-11.34,19.84h-5.66l-5.67,11.34h-5.67v2.83h-2.84c-5.58,6.58,3.09,5.31-8.5,8.5v5.67c-2.83.95-5.67,1.89-8.5,2.84q-4.26,5.67-8.51,11.33h-5.67v5.67c-2.83.95-5.66,1.89-8.5,2.84q-2.835,4.245-5.67,8.5h-5.67q-2.835,4.26-5.67,8.5h-5.66c-0.95,1.89-1.89,3.78-2.84,5.67h-5.67c-0.94,1.89-1.89,3.78-2.83,5.67h-5.67q-2.835,4.26-5.67,8.51-8.505,2.82-17.01,5.66v5.67c-8.03.93-12.16,1.8-17,5.67-0.95,1.89-1.89,3.78-2.84,5.67h-8.5v2.84h-5.67v2.83h-5.67v2.83h-5.67v2.84l-17.01,5.67v2.83q-8.49,1.425-17,2.84c-0.95,1.89-1.89,3.78-2.84,5.67q-9.915,1.41-19.84,2.83v2.83q-5.67,1.425-11.34,2.84v2.83q-12.75,1.425-25.51,2.84v2.83h-5.66v2.84q-14.175,1.41-28.35,2.83v2.84h-14.17v2.83h-11.34v2.83h-22.68v2.84h-79.36c-68.36,0-119.13-11.81-167.233-31.18H952.379v-2.83q-5.668-1.425-11.338-2.84v-2.83q-8.5-1.425-17.007-2.84-1.417-2.835-2.834-5.67-7.086-1.41-14.173-2.83v-2.84h-5.668v-2.83H895.69l-2.835-5.67q-7.085-1.41-14.172-2.83l-2.835-5.67q-5.668-1.425-11.337-2.84l-2.835-5.67q-8.5-2.835-17.007-5.66v-5.67c-13.156-2.79-15.263-11.09-28.344-14.18v-5.66q-5.668-1.425-11.338-2.84v-5.67l-11.338-5.67q-1.418-2.835-2.834-5.67c-16.9-11.95-31-25.31-45.352-39.68l-8.5-11.34c-1.89-.94-3.78-1.89-5.669-2.83-0.945-2.83-1.89-5.67-2.835-8.5h-5.668v-5.67l-8.5-5.67v-5.67q-5.668-4.26-11.338-8.5v-5.67l-8.5-5.67-2.835-11.34-8.5-5.67q-1.418-5.67-2.834-11.34l-8.5-5.67v-8.5c-1.889-.94-3.779-1.89-5.669-2.83q-2.833-8.5-5.669-17.01c-1.889-.94-3.779-1.89-5.669-2.83q-1.416-7.1-2.834-14.18h-2.834v-5.67c-1.89-.94-3.78-1.89-5.669-2.83v-8.5h-2.835v-8.51c-1.889-.94-3.779-1.89-5.669-2.83v-5.67h-2.834q-1.418-9.915-2.835-19.84c-24.063-47.68-34-112.83-34.013-184.24-0.006-28.57-.42-58.13,5.669-79.37q1.416-19.83,2.834-39.68h2.835v-8.5h2.834q1.418-12.75,2.835-25.51h2.834v-8.51h2.834v-8.5h2.835q1.418-9.915,2.834-19.84h2.835q1.417-5.67,2.834-11.34h2.835v-11.34h2.834v-5.67q2.835-1.41,5.669-2.83l2.835-17.01c1.889-.94,3.779-1.89,5.669-2.83q1.416-7.08,2.834-14.17h2.834v-5.67c1.89-.95,3.78-1.89,5.669-2.84q1.418-7.08,2.835-14.17l8.5-5.67v-8.5H674.6q1.416-4.26,2.834-8.5c1.89-.95,3.78-1.89,5.669-2.84v-5.67h2.835c0.944-2.83,1.889-5.67,2.834-8.5,1.889-.95,3.779-1.89,5.669-2.84v-5.66l8.5-5.67v-5.67l8.5-5.67v-5.67q5.668-4.245,11.338-8.5v-5.67q11.336-9.93,22.675-19.84c0.945-2.84,1.89-5.67,2.835-8.51h5.669c1.938-8.29,3.154-9.28,11.337-11.34v-5.66c2.835-.95,5.67-1.89,8.5-2.84q9.92-11.34,19.841-22.67h5.669q2.833-4.26,5.669-8.51h5.669q2.833-4.245,5.669-8.5h5.669q2.834-4.26,5.669-8.5h5.668l2.835-5.67c2.834-.95,5.669-1.89,8.5-2.84v-2.83q5.668-1.425,11.338-2.84,2.835-4.245,5.669-8.5,7.086-1.41,14.172-2.83l2.835-5.67,17.007-5.67q1.416-2.835,2.834-5.67,7.086-1.425,14.172-2.84,1.417-2.835,2.835-5.66,8.5-1.425,17.007-2.84v-2.83q5.668-1.425,11.337-2.84v-2.83q8.5-1.425,17.007-2.84v-2.83h5.669v-2.84q9.919-1.41,19.841-2.83v-2.83h8.5v-2.84h8.5v-2.83q14.175-1.425,28.34-2.84v-2.83h11.34v-2.84h11.34v-2.83h25.51v-2.84h34.01v-2.83c14.71-4.11,57.36-.17,68.03,2.83h34.01v2.84h22.68v2.83H1250v2.84h11.34v2.83h17v2.84h11.34v2.83h8.5v2.84q14.175,2.82,28.35,5.66v2.84h5.67v2.83q9.915,1.425,19.84,2.84c0.94,1.89,1.89,3.78,2.83,5.67h5.67v2.83h11.34v2.84h5.67c0.94,1.88,1.89,3.77,2.83,5.66h8.51v2.84h5.66v2.83h5.67c0.95,1.89,1.89,3.78,2.84,5.67q7.08,1.425,14.17,2.84,1.425,2.835,2.83,5.67,5.67,1.41,11.34,2.83c0.95,1.89,1.89,3.78,2.84,5.67h5.67c0.94,1.89,1.89,3.78,2.83,5.67h5.67c0.94,1.89,1.89,3.78,2.83,5.67q5.67,1.41,11.34,2.83c0.95,1.89,1.89,3.78,2.84,5.67,2.83,0.94,5.67,1.89,8.5,2.83q4.245,5.67,8.5,11.34h5.67q2.835,4.26,5.67,8.51h5.67q4.245,5.655,8.5,11.33h2.84c0.94,1.89,1.89,3.78,2.83,5.67h5.67q5.67,7.1,11.34,14.17C1539.25,1176.57,1552.56,1182.8,1556.12,1196.29Zm-762.471,5.67v5.67H787.98c-5.249,11.39-14.517,19.71-22.676,28.34-1.889.95-3.779,1.89-5.669,2.84v5.67q-4.251,2.82-8.5,5.66v5.67l-8.5,5.67v5.67l-8.5,5.67v5.67h-2.834c-0.945,2.83-1.89,5.67-2.835,8.5-1.889.95-3.779,1.89-5.668,2.84v5.67q-4.253,2.835-8.5,5.66-2.834,8.5-5.669,17.01c-1.889.95-3.779,1.89-5.669,2.84v8.5h-2.834v5.67c-1.89.94-3.78,1.89-5.669,2.83v5.67h-2.835q-1.416,7.1-2.834,14.17c-1.889.95-3.779,1.89-5.669,2.84q-1.418,8.5-2.834,17h-2.835q-1.418,5.67-2.834,11.34h-2.835q-1.418,9.93-2.834,19.84H666.1v5.67h-2.834q-1.418,12.765-2.835,25.51H657.6v8.51H654.76v8.5h-2.834v19.84h-2.834v19.84h-2.835c-7.175,23.85-2.831,59.5-2.834,87.87v36.85h2.834v14.17h2.835v19.84h2.834v19.84h2.834v8.51H657.6v8.5h2.834q1.418,12.75,2.835,25.51H666.1v5.67h2.835q2.833,12.75,5.669,25.51c1.889,0.94,3.779,1.89,5.669,2.83v11.34h2.834v8.51q2.835,1.41,5.669,2.83v5.67h2.834q1.418,7.08,2.835,14.17c1.889,0.95,3.779,1.89,5.669,2.84q1.418,7.08,2.834,14.17l8.5,5.67q1.416,5.67,2.834,11.33c1.89,0.95,3.78,1.89,5.669,2.84v5.67h2.835v5.67l8.5,5.67q1.417,5.655,2.834,11.33c1.89,0.95,3.78,1.89,5.669,2.84,0.945,2.83,1.89,5.67,2.835,8.5l8.5,5.67v5.67q5.668,4.245,11.338,8.5v5.67q19.839,18.42,39.682,36.85c8.359,8.34,18.365,22.13,31.179,25.51v5.67q5.668,1.41,11.338,2.83v5.67c14.894,3.26,13.012,11.98,28.345,14.17v5.67l17.007,5.67q1.416,2.835,2.834,5.67,5.668,1.425,11.338,2.84,1.418,2.82,2.834,5.66l19.842,5.67q1.416,2.835,2.834,5.67,7.086,1.425,14.172,2.84v2.83q5.668,1.425,11.338,2.84v2.83q8.5,1.41,17.007,2.83v2.84h5.669v2.83q9.919,1.425,19.841,2.84v2.83h8.5v2.84h8.51v2.83q12.75,1.425,25.51,2.84v2.83h8.5v2.83h17.01v2.84h31.18v2.83h28.34c23.58,0.02,54.86,2.47,73.7-2.83h28.34v-2.84h14.17v-2.83H1250v-2.83q15.585-1.425,31.18-2.84v-2.83h5.67v-2.84q11.325-1.41,22.67-2.83v-2.84q5.67-1.41,11.34-2.83v-2.84q8.505-1.41,17.01-2.83v-2.83q5.655-1.425,11.33-2.84v-2.83h8.51v-2.84h5.67v-2.83h5.66c0.95-1.89,1.89-3.78,2.84-5.67q7.08-1.425,14.17-2.84c0.95-1.89,1.89-3.78,2.84-5.66q5.655-1.425,11.33-2.84c0.95-1.89,1.89-3.78,2.84-5.67q8.505-2.835,17-5.67c0.95-1.89,1.89-3.78,2.84-5.67h5.67q2.835-4.245,5.67-8.5h5.67c0.94-1.89,1.89-3.78,2.83-5.67h5.67q2.835-4.245,5.67-8.5h5.67q2.835-4.26,5.67-8.5c2.83-.95,5.67-1.89,8.5-2.84v-5.67h5.67q8.505-9.915,17.01-19.84h5.66v-2.83h2.84c5.55-6.51-3.07-5.22,8.5-8.51,2.85-10.93,8.31-8.9,11.34-19.84h5.67c0.94-2.83,1.89-5.67,2.83-8.5q4.26-2.835,8.51-5.67v-5.67q5.67-4.245,11.33-8.5c0.95-2.84,1.89-5.67,2.84-8.51,1.89-.94,3.78-1.89,5.67-2.83q1.41-5.67,2.83-11.34,4.26-2.835,8.51-5.67v-5.67h2.83v-5.67c1.89-.94,3.78-1.89,5.67-2.83l5.67-17.01c1.89-.94,3.78-1.89,5.67-2.83v-5.67h2.83v-8.5c1.89-.95,3.78-1.89,5.67-2.84q1.425-7.08,2.83-14.17h2.84q1.41-5.67,2.83-11.34h2.84v-8.5h2.83q1.425-5.67,2.84-11.34h2.83q1.425-9.915,2.84-19.84h2.83V1715h2.83v-5.67h2.84q1.41-12.765,2.83-25.51h2.84v-8.51h2.83q1.425-16.995,2.84-34.01c11.64-41.24,11.73-109.1,0-150.23V1468.4h-2.84v-11.34h-2.83v-11.34h-2.84v-11.34h-2.83v-14.17c-1.89-.94-3.78-1.89-5.67-2.83q-1.41-11.34-2.83-22.68h-2.84q-1.41-5.67-2.83-11.34h-2.84v-8.5h-2.83q-1.425-7.08-2.84-14.17c-1.89-.95-3.78-1.89-5.67-2.84q-1.41-8.49-2.83-17c-1.89-.95-3.78-1.89-5.67-2.84q-2.835-8.505-5.67-17c-1.89-.95-3.78-1.89-5.67-2.84v-8.5c-1.89-.95-3.78-1.89-5.67-2.84-3.89-4.84-4.7-8.97-5.66-17h-5.67c-3.99-2.59-.22-7.04-2.84-11.34-1.89-.95-3.78-1.89-5.67-2.84a33.242,33.242,0,0,1-8.5-17h-5.67v-5.67q-5.67-4.26-11.34-8.5v-5.67h-2.83c-4.05-4.9-6.61-6.84-8.5-14.18h-5.67v-5.66c-7.96-4.68-9.65-11.43-19.84-14.18v-5.67q-11.34-8.49-22.68-17-1.425-2.835-2.83-5.67h-5.67q-2.835-4.26-5.67-8.51c-2.84-.94-5.67-1.88-8.51-2.83v-5.67c-7.99-1.77-11.67-4.33-17-8.5v-2.84q-5.67-1.41-11.34-2.83-2.835-4.245-5.67-8.5-5.67-1.425-11.34-2.84c-0.94-1.89-1.89-3.78-2.83-5.67q-5.67-1.41-11.34-2.83c-0.94-1.89-1.89-3.78-2.83-5.67h-5.67v-2.84q-7.1-1.41-14.18-2.83c-0.94-1.89-1.89-3.78-2.83-5.67h-5.67v-2.83h-8.5v-2.84q-5.67-1.41-11.34-2.83v-2.84q-8.505-1.41-17.01-2.83v-2.84h-5.67v-2.83h-8.5v-2.83h-11.34v-2.84h-5.67v-2.83h-8.5v-2.84q-14.175-1.41-28.34-2.83v-2.84H1250v-2.83q-21.255-1.425-42.52-2.84v-2.83q-46.77-1.41-93.54-2.83v2.83h-25.51v2.83q-21.255,1.425-42.51,2.84v2.83h-8.51v2.84q-14.16,1.41-28.34,2.83v2.84h-5.67v2.83h-8.5v2.84q-9.919,1.41-19.841,2.83v2.83q-5.668,1.425-11.338,2.84v2.83H952.379v2.84H946.71l-2.835,5.67q-8.5,1.41-17.006,2.83l-2.835,5.67-17.007,5.67q-1.416,2.835-2.834,5.67-7.086,1.41-14.172,2.83-2.835,4.26-5.669,8.51h-8.5q-2.833,4.245-5.669,8.5h-5.668v2.83c-2.835.95-5.67,1.89-8.5,2.84q-1.417,2.835-2.834,5.67H847.5l-2.835,5.67h-2.834q-1.418,2.835-2.835,5.66h-5.669l-8.5,11.34h-5.669q-1.417,2.835-2.834,5.67C809.755,1191.16,803.44,1199.23,793.649,1201.96Zm1485.261-36.85c-9.57,2.78-5.43,3.44-11.34,8.5v2.84h-5.67v5.67q-7.08,5.67-14.17,11.34l-28.35,31.17c-7.23,6.66-7.45-1.53-11.34,11.34h-5.66c-6.15,10.53-48.79,42.33-62.36,45.35v5.67c-10.07,2.03-12.78,7.4-19.84,11.34q-5.67,1.41-11.34,2.83c-0.95,1.89-1.89,3.78-2.84,5.67q-7.08,1.425-14.17,2.84c-0.94,1.89-1.89,3.78-2.83,5.67h-5.67v2.83h-5.67v2.84h-8.5c-0.95,1.89-1.89,3.78-2.84,5.66h-5.67v2.84h-11.33c-0.95,1.89-1.89,3.78-2.84,5.67h-5.67v2.83q-8.5,1.425-17,2.84v2.83h-5.67v2.84q-9.93,1.41-19.85,2.83v2.83h-8.5v2.84h-5.67v2.83q-12.75,1.425-25.51,2.84v2.83h-8.5v2.84h-11.34v2.83l-59.52,5.67c-9.44,2.71-69.24,6.75-82.2,2.83q-12.75-4.245-25.51-8.5c-1.32-7.34-2.72-12.54-2.84-22.67,6.82-4.66,1.78-2.19,5.67-8.51h2.84v-5.67q4.245-2.835,8.5-5.67v-5.66q4.245-2.835,8.5-5.67v-5.67q7.1-5.67,14.18-11.34c0.94-2.83,1.89-5.67,2.83-8.5h5.67c3.07-9.76,8.09-8.25,14.17-14.18q5.67-7.08,11.34-14.17h5.67c0.94-1.89,1.89-3.78,2.83-5.67h5.67q2.835-4.245,5.67-8.5h5.67c0.94-1.89,1.89-3.78,2.83-5.67l17.01-5.67c0.95-1.89,1.89-3.78,2.84-5.67q8.49-2.835,17-5.67c0.95-1.89,1.89-3.78,2.84-5.66h8.5v-2.84h5.67c0.94-1.89,1.89-3.78,2.83-5.67q8.5-1.41,17.01-2.83c0.94-1.89,1.89-3.78,2.83-5.67q12.765-2.835,25.51-5.67c0.95-1.89,1.89-3.78,2.84-5.67q11.34-1.41,22.67-2.83v-2.84q5.67-1.41,11.34-2.83v-2.84q14.175-1.41,28.35-2.83v-2.84h5.67v-2.83h11.33v-2.84h17.01c14.23-4.22,33.54-7.15,48.19-11.33h34.01v-2.84h17.01v-2.83h51.02c14.21-4,48.15-5.11,62.36,0C2282.75,1158.7,2280.87,1157.39,2278.91,1165.11Zm-1323.7,198.41v5.67c8.785,1.99,12.252,4.79,19.842,8.5v2.84h11.337v2.83c13.449,4.24,23.988.49,34.018-2.83h11.33v-2.84h5.67c0.95-1.88,1.89-3.77,2.84-5.66q5.67-1.425,11.33-2.84c0.95-1.89,1.89-3.78,2.84-5.67h5.67v-2.83h5.67v-2.84h8.5c0.95-1.89,1.89-3.78,2.84-5.67h8.5v-2.83q9.915-1.41,19.84-2.83c6.89-2.43,31.41-6.7,42.52-2.84v2.84h5.67v2.83h11.33v2.83h5.67c0.95,1.89,1.89,3.78,2.84,5.67h5.67q5.655,7.1,11.33,14.18c1.89,0.94,3.78,1.89,5.67,2.83v5.67c1.89,0.94,3.78,1.89,5.67,2.83v5.67c1.89,0.95,3.78,1.89,5.67,2.84q1.425,8.505,2.83,17h2.84v5.67h2.83q1.425,26.925,2.84,53.86h2.83v8.5h2.84c2.95,7.55,1.69,16.4,5.67,22.68h2.83c3.27,4.33,3.95,4.95,5.67,11.33,8.29,1.94,9.28,3.16,11.34,11.34h5.67c0.94,2.84,1.89,5.67,2.83,8.51q4.245,2.835,8.5,5.66v5.67h2.84v5.67c1.89,0.95,3.78,1.89,5.67,2.84v5.67h2.83v8.5h2.84q1.41,5.67,2.83,11.34h2.84q1.41,15.585,2.83,31.18h2.83q1.425,14.16,2.84,28.34h-2.84v17.01h-2.83q-1.425,11.34-2.83,22.67h-2.84v5.67c-1.89.95-3.78,1.89-5.67,2.84v5.67q-8.5,7.08-17,14.17-9.93,1.41-19.85,2.83v-2.83q-9.915-1.425-19.84-2.84c-4.7-7.65-11.32-7.27-14.17-17h-5.67c-0.94-2.84-1.89-5.67-2.83-8.51q-5.67-4.245-11.34-8.5v-5.67c-8.91-2.16-13.07-8.74-19.84-11.34h-14.17v-2.83h-53.86c-0.94-1.89-1.89-3.78-2.83-5.67h-5.67v-2.83h-2.84c-5.44-6.39,3-4.98-8.5-8.51-1.6-6.4-2.41-7.06-5.67-11.34h-2.83v-5.66h-2.84v-5.67h-2.83v-8.51h-2.84v-5.67h-2.83l-5.67-42.51c-9-2.3-11.77-8.36-19.84-11.34h-11.34v-2.84h-8.5v-2.83H994.9c-5.019-1.46-26.665-7.63-34.014-5.67v2.84H946.71c-11.471,3.57-45.149,14.87-65.193,8.5v-2.84h-8.5v-2.83H858.842v-2.83q-8.5-1.425-17.007-2.84L839,1522.25h-5.669v-2.83h-5.668l-2.835-5.67c-2.834-.95-5.669-1.89-8.5-2.84v-2.83H813.49c-5.443-6.44,3-5-8.5-8.5-2.569-11.71-7.776-12.11-11.338-19.84q-1.418-7.1-2.834-14.18H787.98v-5.67h-2.834c-8.6-21.73-1.929-62.93,0-85.03q14.17-1.41,28.344-2.83c0.945-2.84,1.89-5.67,2.835-8.51,1.889-.94,3.779-1.89,5.669-2.83v-5.67h2.834q1.418-7.08,2.835-14.17H830.5c3.281-4.33,3.914-4.97,5.669-11.34,6.375-1.81,6.969-2.4,11.338-5.67v-2.83h5.669v-2.84c7.092-2.64,35.971.9,39.682,2.84q1.417,2.835,2.835,5.66,5.668,1.425,11.337,2.84,2.835,4.245,5.669,8.5h5.669v2.84h5.669q2.835,4.245,5.669,8.5h5.669l2.835,5.67c2.834,0.94,5.669,1.89,8.5,2.83v2.84C949.544,1361.63,952.379,1362.58,955.213,1363.52ZM538.548,1794.36c0.66,3.13,5.551,15.18,2.834,19.84h-2.834c-1.484,6.33-2.377,7.24-5.669,11.34h-2.835c-0.945,2.83-1.89,5.67-2.834,8.5h-5.669v2.84h-2.835c-5.578,6.56,3.1,5.32-8.5,8.5-2.484,10.03-29.68,37.12-39.683,39.68v5.67c-2.834.95-5.669,1.89-8.5,2.84q-2.834,4.245-5.669,8.5h-5.669q-2.833,4.245-5.669,8.5h-5.669q-1.416,2.835-2.834,5.67h-5.669q-2.834,4.26-5.669,8.51-5.668,1.41-11.338,2.83-1.416,2.835-2.834,5.67-5.668,1.41-11.338,2.83-1.418,2.835-2.834,5.67l-17.007,5.67-2.835,5.67h-8.5v2.84h-5.669v2.83q-5.668,1.41-11.338,2.83v2.84q-7.084,1.41-14.172,2.83v2.84h-5.669v2.83l-25.51,5.67v2.84h-5.669v2.83q-11.337,1.41-22.676,2.83v2.84h-8.5v2.83q-15.588,1.425-31.179,2.84v2.83H223.922v2.84H209.75v2.83H181.405v2.84H39.683v-8.51c10.488-6.52,10.182-19.01,22.676-22.67l2.834-11.34h5.669v-5.67q8.5-7.08,17.007-14.17c0.945-2.84,1.89-5.67,2.834-8.51h5.669v-5.67q11.336-9.915,22.675-19.84l2.835-5.67h5.669q8.5-9.915,17.007-19.84h5.668q4.252-5.67,8.5-11.33H164.4q2.834-4.26,5.669-8.51,5.668-1.41,11.337-2.83,2.835-4.26,5.669-8.51h8.5q1.417-2.835,2.834-5.66c4.817-3.87,8.987-4.78,17.007-5.67v-5.67l19.841-5.67,2.835-5.67q8.5-1.41,17.006-2.83l2.835-5.67q9.92-1.425,19.841-2.84v-2.83q5.668-1.425,11.338-2.84v-2.83q12.755-1.425,25.51-2.84v-2.83h5.669v-2.83q17.005-1.425,34.014-2.84c28.9-8.44,100.291-18.44,136.054-8.5h34.013v2.83h5.669v2.84C532.878,1792.47,535.713,1793.42,538.548,1794.36Z"/>
</svg>
